<?xml version="1.0" encoding="utf-8"?>
<!-- Generator: Adobe Illustrator 24.1.0, SVG Export Plug-In . SVG Version: 6.00 Build 0)  -->
<svg version="1.1" xmlns="http://www.w3.org/2000/svg" xmlns:xlink="http://www.w3.org/1999/xlink" x="0px" y="0px"
	 viewBox="0 0 560 288" style="enable-background:new 0 0 560 288;" xml:space="preserve">
<style type="text/css">
	.st0{fill:#00FFEA;}
	.st1{fill:#FFFFFF;}
	.st2{fill:#661FFF;}
</style>
<g id="Слой_1">
	<g>
		<path class="st0" d="M5.25,193.64c0.18-4.31,0.7-8.59,1.4-12.83c0.69-4.25,1.62-8.46,2.69-12.64c2.17-8.36,5.1-16.53,8.6-24.49
			l2.72-5.87c0.92-1.92,1.9-3.84,2.89-5.77c1.97-3.88,4.22-7.7,6.61-11.45c2.4-3.75,5.05-7.37,7.86-10.84l2.13-2.55l2.09-2.43
			c1.42-1.62,2.88-3.24,4.36-4.85c5.97-6.39,12.46-12.47,19.86-17.74c3.71-2.6,7.58-5.1,11.81-7.14c2.12-1.01,4.27-2,6.54-2.8
			c2.25-0.82,4.62-1.46,7.02-1.99c2.43-0.48,4.91-0.81,7.46-0.83c2.52-0.09,5.11,0.17,7.61,0.66c1.25,0.33,2.5,0.56,3.7,1.02
			l1.8,0.64c0.59,0.24,1.17,0.5,1.75,0.79c2.29,1.13,4.36,2.52,6.21,4.07c3.7,3.13,6.49,6.88,8.64,10.8
			c2.13,3.94,3.63,8.06,4.57,12.28c-2.76-3.32-5.55-6.47-8.56-9.18c-3.04-2.67-6.22-4.97-9.56-6.46c-1.66-0.75-3.32-1.35-4.97-1.66
			c-0.41-0.09-0.83-0.15-1.24-0.22l-1.26-0.14c-0.82-0.14-1.67-0.07-2.49-0.11c-3.32,0.08-6.61,0.84-9.87,2.07
			c-1.63,0.66-3.25,1.35-4.84,2.24c-1.6,0.82-3.19,1.77-4.75,2.77c-3.11,2.05-6.18,4.32-9.13,6.82
			c-5.94,4.97-11.58,10.58-17.07,16.46c-1.38,1.46-2.74,2.96-4.11,4.48l-4.05,4.52c-2.6,2.95-5.05,6.01-7.47,9.14
			c-2.41,3.14-4.67,6.42-6.97,9.76l-6.82,10.27c-4.46,6.84-8.74,13.86-12.88,21.07c-2.09,3.6-4.11,7.25-6.15,10.94
			C9.37,186.14,7.37,189.88,5.25,193.64z"/>
	</g>
</g>
<g id="Слой_2">
	<g>
		<path class="st1" d="M60.59,55.47c7.58,4.04,14.61,9.01,21.28,14.46c6.66,5.46,12.83,11.53,18.59,18c2.87,3.3,5.57,6.48,8.24,9.92
			c2.7,3.4,5.24,7,7.65,10.71c2.41,3.72,4.57,7.62,6.6,11.58c0.49,0.98,0.99,2.03,1.43,2.98l1.34,2.91c0.9,1.96,1.78,3.94,2.64,5.94
			c1.67,4.02,3.21,8.13,4.6,12.33c1.33,4.21,2.53,8.51,3.42,12.93c0.86,4.42,1.56,8.94,1.7,13.59c0.06,2.33,0.09,4.67-0.11,7.04
			c-0.16,2.36-0.54,4.76-1.02,7.14c-0.54,2.39-1.23,4.75-2.23,7.05c-0.93,2.31-2.19,4.53-3.63,6.59c-0.79,0.99-1.5,2.03-2.4,2.92
			l-1.29,1.36c-0.45,0.44-0.92,0.86-1.41,1.26c-1.92,1.62-4.01,2.93-6.15,3.99c-4.3,2.1-8.82,3.14-13.24,3.56
			c-4.43,0.38-8.8,0.12-13.02-0.66c4.17-1.06,8.19-2.25,11.93-3.82c3.71-1.62,7.17-3.54,9.97-5.95c1.4-1.2,2.66-2.47,3.67-3.85
			c0.26-0.34,0.5-0.7,0.74-1.05l0.67-1.1c0.48-0.7,0.79-1.52,1.18-2.26c1.37-3.11,2.07-6.48,2.33-10.02
			c0.09-1.78,0.13-3.57-0.01-5.41c-0.07-1.82-0.29-3.68-0.55-5.54c-0.57-3.72-1.38-7.49-2.44-11.24c-1.05-3.75-2.21-7.52-3.61-11.25
			c-1.33-3.75-2.8-7.49-4.39-11.2c-0.76-1.87-1.56-3.74-2.39-5.61l-2.48-5.56c-1.61-3.61-3.44-7.11-5.33-10.61
			c-1.9-3.49-3.98-6.91-6.11-10.38L90.14,95.8c-4.47-6.86-9.18-13.61-14.14-20.29c-2.46-3.35-5.01-6.66-7.58-10L60.59,55.47z"/>
	</g>
</g>
<g id="Слой_3">
	<g>
		<path class="st2" d="M156.82,194.92c-4,1.64-8.09,2.97-12.25,4.11c-4.15,1.15-8.37,2.07-12.62,2.85
			c-8.5,1.53-17.16,2.28-25.85,2.43l-6.47-0.02c-2.13-0.03-4.28-0.12-6.46-0.22c-4.35-0.19-8.77-0.58-13.17-1.22
			c-4.41-0.64-8.81-1.52-13.14-2.63l-3.21-0.88l-3.08-0.89c-2.07-0.61-4.15-1.26-6.22-1.94c-8.3-2.76-16.54-6.14-24.42-10.66
			c-3.94-2.26-7.79-4.79-11.42-7.78c-1.81-1.51-3.6-3.05-5.28-4.79c-1.69-1.7-3.25-3.6-4.74-5.56c-1.45-2.02-2.79-4.13-3.87-6.45
			c-1.13-2.26-1.98-4.72-2.57-7.21c-0.22-1.28-0.53-2.51-0.61-3.8l-0.17-1.9c-0.03-0.64-0.03-1.28-0.01-1.92
			c0.07-2.56,0.48-5.03,1.12-7.36c1.32-4.67,3.57-8.77,6.24-12.36c2.7-3.58,5.84-6.65,9.28-9.26c-1.86,3.9-3.55,7.75-4.75,11.62
			c-1.15,3.87-1.91,7.73-1.86,11.38c-0.04,3.66,0.83,6.9,2.22,9.9c1.46,2.97,3.52,5.63,5.99,8.07c1.28,1.2,2.58,2.38,4.05,3.45
			c1.41,1.11,2.94,2.15,4.49,3.15c3.15,1.98,6.52,3.77,10,5.44c6.98,3.33,14.43,6.1,22.06,8.65c1.91,0.65,3.83,1.26,5.78,1.87
			l5.79,1.8c3.76,1.13,7.56,2.1,11.41,2.98c3.86,0.85,7.77,1.6,11.77,2.28l12.17,1.93c8.07,1.21,16.24,2.19,24.51,2.95
			c4.14,0.4,8.31,0.73,12.51,1.05C148.28,194.28,152.51,194.55,156.82,194.92z"/>
	</g>
</g>
<g id="Слой_4">
	<g>
		<g>
			<path class="st1" d="M170.5,171.14l-12.56-58.78h12.07c2.54,14.21,5.8,33.6,6.87,44.66h0.09c1.95-11.16,6.65-31.18,9.43-44.66
				h10.11c2.5,11.45,7.38,32.91,9.06,44.08h0.13c1.59-12.73,5.99-33.95,7.61-44.08h11.11l-13.36,58.78h-11.46
				c-2.56-12.69-6.83-30.74-8.6-41.68h-0.12c-1.87,11.15-6.36,30.2-8.91,41.68H170.5z"/>
			<path class="st1" d="M264.65,145.26h-22.31v16.43h24.8l-1.37,9.45h-34.48v-58.78h34.34v9.57h-23.29v13.8h22.31V145.26z"/>
			<path class="st1" d="M274.76,112.36h20.45c11.58,0,17.24,6.25,17.24,14.92c0,7.4-3.8,10.77-6.98,12.05
				c4.24,1.76,8.85,5.8,8.85,14.27c0,11.25-7.91,17.54-19.43,17.54h-20.13V112.36z M292.92,135.64c6.35,0,8.65-2.23,8.65-7.27
				c0-4.99-3.01-7.26-8.16-7.26h-7.59v14.53H292.92z M285.81,162.5h8.09c5.35,0,9.01-2.65,9.01-8.99c0-5.89-2.95-9.21-10.03-9.21
				h-7.06V162.5z"/>
			<path class="st1" d="M341.57,144.03v9.39h-20.7v-9.39H341.57z"/>
			<path class="st1" d="M392.25,149.24c0-10.01,0.17-21.73,0.38-28.37h-0.35c-2.33,11.68-7.01,32.47-11.51,50.27h-9.94
				c-3.33-15.82-8.13-38.77-10.29-50.43h-0.4c0.43,6.86,0.68,19.39,0.68,29.53v20.9h-10.33v-58.78h16.85
				c3.66,14.95,7.67,33.46,9.09,42.21h0.09c1.23-7.79,6.48-27.52,10.24-42.21h16.32v58.78h-10.84V149.24z"/>
			<path class="st1" d="M424,156.77l-3.55,14.37h-11.18c0.4-1.18,15.41-57.45,15.85-58.78h14.6l16.4,58.78H444.3l-3.71-14.37H424z
				 M438.47,147.24c-2.94-11.59-5.11-19.91-6.24-25.46h-0.17c-1.08,5.99-3.36,15-5.98,25.46H438.47z"/>
			<path class="st1" d="M462.38,112.36h11.09v26.74c4.8-6.73,12.97-18.99,18.39-26.74h13.25l-17.67,23.34l18.45,35.44h-13.03
				l-13.13-27.11l-6.21,7.63v19.48h-11.13V112.36z"/>
			<path class="st1" d="M543.91,145.26H521.6v16.43h24.8l-1.37,9.45h-34.48v-58.78h34.34v9.57H521.6v13.8h22.31V145.26z"/>
		</g>
	</g>
</g>
</svg>
